<svg width="100" height="100" viewBox="0 0 100 100" fill="none" xmlns="http://www.w3.org/2000/svg">
<path d="M60.5833 28.3372C56.6666 26.2539 52.25 25.0039 47.5833 25.0039C32.4166 25.0039 20.0833 37.3372 20.0833 52.5039C20.0833 67.6706 32.4166 80.0039 47.5833 80.0039C62.75 80.0039 75.0833 67.6706 75.0833 52.5039C75.0833 47.8372 73.9166 43.3372 71.75 39.5039L68.25 43.0039C69.5833 45.9206 70.3333 49.0872 70.3333 52.5039C70.3333 65.0872 60.0833 75.2539 47.5833 75.2539C35.0833 75.2539 24.75 65.0039 24.75 52.5039C24.75 39.9206 35 29.7539 47.5 29.7539C50.9166 29.7539 54.0833 30.5039 57 31.8372L60.5833 28.3372Z" fill="#3A6FB6"/>
<path d="M47.5 39.7552C48 39.7552 48.5 39.7552 49 39.8385L52.9167 35.9219C51.1667 35.3385 49.3334 35.0885 47.4167 35.0885C37.75 35.0885 29.9167 42.9219 29.9167 52.5885C29.9167 62.2552 37.75 70.0885 47.4167 70.0885C57.0834 70.0885 64.9167 62.2552 64.9167 52.5885C64.9167 50.6719 64.5834 48.8385 64.0834 47.0885L60.1667 51.0052C60.25 51.5052 60.25 52.0052 60.25 52.5052C60.25 59.5052 54.5 65.2552 47.5 65.2552C40.5 65.2552 34.75 59.5052 34.75 52.5052C34.75 45.4219 40.5 39.7552 47.5 39.7552Z" fill="#3A6FB6"/>
<path d="M76.6667 34.5039L75.6667 35.5039C78.6667 40.4206 80.4167 46.2539 80.4167 52.4206C80.4167 70.5039 65.6667 85.1706 47.5833 85.1706C29.5 85.1706 14.75 70.5872 14.75 52.5039C14.75 34.4206 29.5 19.6706 47.5833 19.6706C53.75 19.6706 59.5833 21.4206 64.5 24.4206L65.5 23.4206V19.5872C60.1667 16.6706 54 15.0039 47.5 15.0039C26.8333 15.0039 10 31.8372 10 52.5039C10 73.1706 26.8333 90.0039 47.5 90.0039C68.1667 90.0039 85 73.1706 85 52.5039C85 46.0039 83.3333 39.8372 80.4167 34.5039H76.6667Z" fill="#3A6FB6"/>
<path d="M89 20.4206C88.6667 19.5872 87.8333 19.0039 86.9167 19.0039H81V13.0872C81 12.1706 80.4167 11.3372 79.5833 11.0039C78.75 10.6706 77.75 10.8372 77.1667 11.5039L71 17.6706C70.5833 18.0872 70.3333 18.6706 70.3333 19.2539V25.4206L50.25 45.5039C49.4167 45.1706 48.5 45.0039 47.5 45.0039C43.3333 45.0039 40 48.3372 40 52.5039C40 56.6706 43.3333 60.0039 47.5 60.0039C51.6667 60.0039 55 56.6706 55 52.5039C55 51.5039 54.8333 50.5872 54.5 49.7539L74.5833 29.5872H80.75C81.3333 29.5872 81.9167 29.3372 82.3333 28.9206L88.5 22.7539C89.1667 22.1706 89.3333 21.2539 89 20.4206Z" fill="#3A6FB6"/>
</svg>
