<svg width="100" height="100" viewBox="0 0 100 100" fill="none" xmlns="http://www.w3.org/2000/svg">
<path d="M55.5622 48.1138C56.3071 47.3689 56.2243 46.1274 55.4794 45.4653C54.7345 44.7204 53.493 44.8032 52.8309 45.548L49.1892 49.4381L47.6994 47.8655C46.9545 47.1206 45.7958 47.0378 45.0509 47.7827C44.306 48.5276 44.2232 49.6863 44.9681 50.4312L47.8649 53.4936C48.196 53.9074 48.6926 54.073 49.272 54.073C49.7686 54.073 50.2652 53.8247 50.679 53.4936L55.5622 48.1138Z" fill="#3A6FB6"/>
<path d="M45.7958 69.1354C45.7958 69.9631 46.4579 70.5424 47.2028 70.5424H53.4103C54.2379 70.5424 54.8173 69.8803 54.8173 69.1354V65.9075C56.1416 65.4937 57.4658 64.9971 58.6245 64.335L60.942 66.6524C61.5214 67.2318 62.4318 67.2318 62.9284 66.6524L67.315 62.2658C67.8943 61.6865 67.8943 60.776 67.315 60.2794L64.9975 57.962C65.6597 56.8033 66.239 55.479 66.5701 54.1547H69.798C70.6256 54.1547 71.205 53.4926 71.205 52.7477V46.5403C71.205 45.7126 70.5429 45.1332 69.798 45.1332H66.5701C66.1563 43.809 65.6597 42.4847 64.9975 41.326L67.315 39.0085C67.8943 38.4292 67.8943 37.5187 67.315 37.0222L62.9284 32.6355C62.349 32.0562 61.4386 32.0562 60.942 32.6355L58.6245 34.953C57.4658 34.2909 56.1416 33.7115 54.8173 33.3804V30.1526C54.8173 29.3249 54.1552 28.7455 53.4103 28.7455H47.2028C46.3752 28.7455 45.7958 29.4077 45.7958 30.1526V33.3804C44.4715 33.7943 43.1473 34.2909 41.9886 34.953L39.6711 32.6355C39.0917 32.0562 38.1813 32.0562 37.6847 32.6355L33.2981 37.0222C32.7188 37.6015 32.7188 38.5119 33.2981 39.0085L35.6156 41.326C34.9534 42.4847 34.3741 43.809 34.043 45.1332H30.8151C29.9875 45.1332 29.4081 45.7954 29.4081 46.5403V52.7477C29.4081 53.5754 30.0702 54.1547 30.8151 54.1547H34.043C34.4568 55.479 34.9534 56.8033 35.6156 57.962L33.2981 60.2794C32.7188 60.8588 32.7188 61.7692 33.2981 62.2658L37.6847 66.6524C38.2641 67.2318 39.1745 67.2318 39.6711 66.6524L41.9886 64.335C43.1473 64.9971 44.4715 65.5765 45.7958 65.9075V69.1354ZM40.0022 49.5198C40.0022 43.809 44.6371 39.2568 50.2652 39.2568C55.976 39.2568 60.5282 43.8917 60.5282 49.5198C60.5282 55.1479 55.976 59.7828 50.2652 59.7828C44.6371 59.7828 40.0022 55.2307 40.0022 49.5198Z" fill="#3A6FB6"/>
<path d="M20.0555 49.5208C20.0555 32.8848 33.6292 19.3112 50.2652 19.3112H50.3479L48.8581 20.801C48.0305 21.6286 48.0305 22.8701 48.8581 23.6978C49.272 24.1116 49.7686 24.2772 50.3479 24.2772C50.8445 24.2772 51.4239 24.1116 51.8377 23.6978L56.8865 18.6491C57.3003 18.2352 57.4658 17.7386 57.4658 17.1593C57.4658 16.5799 57.2175 16.0833 56.8865 15.6695L51.8377 10.6207C51.0101 9.79308 49.7686 9.79308 48.9409 10.6207C48.1132 11.4484 48.1132 12.6899 48.9409 13.5176L50.4307 15.0073H50.3479C31.3945 15.2556 16 30.6501 16 49.5208C16 59.1217 19.8072 67.9777 26.7596 74.5162C27.1734 74.8472 27.67 75.0955 28.1666 75.0955C28.746 75.0955 29.2426 74.8472 29.6564 74.4334C30.4013 73.6058 30.4013 72.2815 29.5736 71.5366C23.4489 65.743 20.0555 57.963 20.0555 49.5208Z" fill="#3A6FB6"/>
<path d="M84.5303 49.5219C84.5303 39.9211 80.7231 31.0651 73.7707 24.5266C72.9431 23.7817 71.6188 23.7817 70.8739 24.6093C70.129 25.5198 70.129 26.7612 70.9567 27.5889C77.0814 33.2998 80.4748 41.1626 80.4748 49.5219C80.4748 66.1579 66.9011 79.7315 50.2652 79.7315C50.2652 79.7315 50.2652 79.7315 50.1824 79.7315L51.6722 78.2418C52.4998 77.4141 52.4998 76.1726 51.6722 75.3449C50.8445 74.5173 49.603 74.5173 48.7754 75.3449L43.7266 80.3937C43.3128 80.8075 43.1473 81.3041 43.1473 81.8835C43.1473 82.4628 43.3956 82.9594 43.7266 83.3733L48.7754 88.422C49.1892 88.8358 49.6858 89.0014 50.2652 89.0014C50.7618 89.0014 51.3411 88.8358 51.755 88.422C52.5826 87.5943 52.5826 86.3528 51.755 85.5252L50.2652 84.0354C50.2652 84.0354 50.2652 84.0354 50.3479 84.0354C69.1358 83.7871 84.5303 68.3926 84.5303 49.5219Z" fill="#3A6FB6"/>
</svg>
