<svg width="100" height="100" viewBox="0 0 100 100" fill="none" xmlns="http://www.w3.org/2000/svg">
<path d="M34.4634 43.764H44.2598C44.8448 43.764 45.3187 43.2898 45.3187 42.7051V32.9086C45.3187 32.3239 44.8448 31.8497 44.2598 31.8497H34.4634C33.8784 31.8497 33.4045 32.3239 33.4045 32.9086V42.7051C33.4045 43.2898 33.8784 43.764 34.4634 43.764ZM35.5223 33.9675H43.2009V41.6462H35.5223V33.9675Z" fill="#3A6FB6"/>
<path d="M33.4045 58.1647C33.4045 58.7495 33.8784 59.2236 34.4634 59.2236H44.2598C44.8448 59.2236 45.3187 58.7495 45.3187 58.1647V48.3683C45.3187 47.7836 44.8448 47.3094 44.2598 47.3094H34.4634C33.8784 47.3094 33.4045 47.7836 33.4045 48.3683V58.1647ZM35.5223 49.4272H43.2009V57.1058H35.5223V49.4272Z" fill="#3A6FB6"/>
<path d="M33.4045 73.6244C33.4045 74.2091 33.8784 74.6833 34.4634 74.6833H44.2598C44.8448 74.6833 45.3187 74.2091 45.3187 73.6244V63.8279C45.3187 63.2432 44.8448 62.769 44.2598 62.769H34.4634C33.8784 62.769 33.4045 63.2432 33.4045 63.8279V73.6244ZM35.5223 64.8868H43.2009V72.5655H35.5223V64.8868Z" fill="#3A6FB6"/>
<path d="M64.2534 36.7483H53.0997C52.5147 36.7483 52.0408 37.2225 52.0408 37.8072C52.0408 38.3919 52.5147 38.8661 53.0997 38.8661H64.2534C64.8384 38.8661 65.3123 38.3919 65.3123 37.8072C65.3123 37.2225 64.8384 36.7483 64.2534 36.7483Z" fill="#3A6FB6"/>
<path d="M49.0054 38.8661H50.276C50.861 38.8661 51.3349 38.3919 51.3349 37.8072C51.3349 37.2225 50.861 36.7483 50.276 36.7483H49.0054C48.4204 36.7483 47.9465 37.2225 47.9465 37.8072C47.9465 38.3919 48.4204 38.8661 49.0054 38.8661Z" fill="#3A6FB6"/>
<path d="M64.2534 52.208H59.1707C58.5858 52.208 58.1118 52.6821 58.1118 53.2669C58.1118 53.8516 58.5858 54.3258 59.1707 54.3258H64.2534C64.8384 54.3258 65.3123 53.8516 65.3123 53.2669C65.3123 52.6821 64.8384 52.208 64.2534 52.208Z" fill="#3A6FB6"/>
<path d="M49.0054 54.3258H56.0646C56.6495 54.3258 57.1235 53.8516 57.1235 53.2669C57.1235 52.6821 56.6495 52.208 56.0646 52.208H49.0054C48.4204 52.208 47.9465 52.6821 47.9465 53.2669C47.9465 53.8516 48.4204 54.3258 49.0054 54.3258Z" fill="#3A6FB6"/>
<path d="M49.0054 69.7854H64.2534C64.8384 69.7854 65.3123 69.3113 65.3123 68.7265C65.3123 68.1418 64.8384 67.6676 64.2534 67.6676H49.0054C48.4204 67.6676 47.9465 68.1418 47.9465 68.7265C47.9465 69.3113 48.4204 69.7854 49.0054 69.7854Z" fill="#3A6FB6"/>
<path d="M41.681 34.5491C41.1475 34.3105 40.5209 34.5493 40.2818 35.0832L38.9211 38.1244L38.0361 36.9626C37.6816 36.4975 37.0174 36.4071 36.5519 36.762C36.0869 37.1163 35.9971 37.7809 36.3514 38.2459L38.3171 40.826C38.5187 41.0906 38.8313 41.2432 39.1594 41.2432C39.1998 41.2432 39.2407 41.2409 39.2811 41.2363C39.6524 41.1933 39.9736 40.958 40.1261 40.6168L42.2149 35.9479C42.454 35.4145 42.2149 34.788 41.681 34.5491Z" fill="#3A6FB6"/>
<path d="M24.0589 27.4131C24.6436 27.4131 25.1178 26.9389 25.1178 26.3542V21.5167C25.1178 20.4125 26.0162 19.5139 27.1206 19.5139H38.7388V23.7643H29.9112C29.3265 23.7643 28.8523 24.2385 28.8523 24.8232V79.5066C28.8523 80.0913 29.3265 80.5655 29.9112 80.5655H70.9242C71.509 80.5655 71.9831 80.0913 71.9831 79.5066V24.8232C71.9831 24.2385 71.509 23.7643 70.9242 23.7643H62.1755V19.5139H73.5842C74.6865 19.5139 75.5834 20.4127 75.5834 21.5174V78.7802C75.5834 79.3649 76.0575 79.8391 76.6423 79.8391C77.227 79.8391 77.7012 79.3649 77.7012 78.7802V21.5174C77.7012 19.245 75.8542 17.3961 73.5842 17.3961H62.1755V15.7297C62.1755 15.1449 61.7013 14.6708 61.1166 14.6708H56.9367C55.5826 12.4208 53.1081 11 50.4571 11C47.8061 11 45.3316 12.4208 43.9775 14.6708H39.7976C39.2129 14.6708 38.7388 15.1449 38.7388 15.7297V17.3961H27.1206C24.8484 17.3961 23 19.2445 23 21.5167V26.3544C23 26.9391 23.4742 27.4131 24.0589 27.4131ZM39.7976 28.2246H51.8692C52.454 28.2246 52.9281 27.7504 52.9281 27.1657C52.9281 26.581 52.454 26.1068 51.8692 26.1068H40.8565V16.7885H44.6071C45.0131 16.7885 45.3837 16.5562 45.5604 16.1907C46.4632 14.3241 48.3853 13.1178 50.4571 13.1178C52.5289 13.1178 54.451 14.3241 55.3539 16.1907C55.5307 16.5562 55.9011 16.7885 56.3071 16.7885H60.0577V26.1068H55.8928C55.3081 26.1068 54.8339 26.581 54.8339 27.1657C54.8339 27.7504 55.3081 28.2246 55.8928 28.2246H61.1166C61.7013 28.2246 62.1755 27.7504 62.1755 27.1657V25.8821H69.8653V78.4477H30.9701V25.8821H38.7388V27.1657C38.7388 27.7506 39.2127 28.2246 39.7976 28.2246Z" fill="#3A6FB6"/>
<path d="M24.0602 28.7794C23.4754 28.7794 23.0013 29.2536 23.0013 29.8383V31.2822C23.0013 31.8669 23.4754 32.3411 24.0602 32.3411C24.6449 32.3411 25.1191 31.8669 25.1191 31.2822V29.8383C25.1191 29.2534 24.6449 28.7794 24.0602 28.7794Z" fill="#3A6FB6"/>
<path d="M76.6429 81.4702C76.0582 81.4702 75.584 81.9444 75.584 82.5291V85.881C75.584 86.9843 74.6863 87.8821 73.5829 87.8821H27.1202C26.0168 87.8821 25.1191 86.9843 25.1191 85.881V34.7663C25.1191 34.1816 24.6449 33.7074 24.0602 33.7074C23.4754 33.7074 23.0013 34.1816 23.0013 34.7663V85.881C23.0013 88.1521 24.849 89.9998 27.1202 89.9998H73.5829C75.854 89.9998 77.7018 88.1521 77.7018 85.881V82.5291C77.7018 81.9444 77.2276 81.4702 76.6429 81.4702Z" fill="#3A6FB6"/>
<path d="M50.4177 19.5021C51.5581 19.5021 52.4826 18.5776 52.4826 17.4372C52.4826 16.2969 51.5581 15.3724 50.4177 15.3724C49.2773 15.3724 48.3529 16.2969 48.3529 17.4372C48.3529 18.5776 49.2773 19.5021 50.4177 19.5021Z" fill="#3A6FB6"/>
</svg>
