<svg width="20" height="20" viewBox="0 0 30 30" fill="none" xmlns="http://www.w3.org/2000/svg">
<path d="M21.125 13.6623H9.875C9.37817 13.6637 8.9021 13.8618 8.55078 14.2131C8.19947 14.5644 8.00145 15.0405 8 15.5373V22.2873C8.00145 22.7841 8.19947 23.2602 8.55078 23.6115C8.9021 23.9628 9.37817 24.1608 9.875 24.1623H21.125C21.6218 24.1608 22.0979 23.9628 22.4492 23.6115C22.8005 23.2602 22.9985 22.7841 23 22.2873V15.5373C22.9985 15.0405 22.8005 14.5644 22.4492 14.2131C22.0979 13.8618 21.6218 13.6637 21.125 13.6623ZM12.5051 19.3053C12.5521 19.3323 12.5934 19.3683 12.6265 19.4113C12.6595 19.4542 12.6838 19.5033 12.6979 19.5557C12.712 19.608 12.7156 19.6626 12.7086 19.7164C12.7015 19.7702 12.6839 19.822 12.6568 19.869C12.6297 19.9159 12.5936 19.9571 12.5505 19.9901C12.5075 20.023 12.4584 20.0472 12.406 20.0612C12.3536 20.0752 12.299 20.0787 12.2452 20.0715C12.1915 20.0643 12.1397 20.0466 12.0928 20.0194L11.4124 19.6265V20.4123C11.4124 20.5217 11.3689 20.6266 11.2916 20.7039C11.2143 20.7812 11.1094 20.8247 11 20.8247C10.8906 20.8247 10.7858 20.7812 10.7084 20.7039C10.6311 20.6266 10.5877 20.5217 10.5877 20.4123V19.6265L9.90723 20.0194C9.81255 20.0738 9.70016 20.0884 9.59473 20.06C9.48929 20.0316 9.39941 19.9626 9.34481 19.868C9.29021 19.7735 9.27534 19.6611 9.30348 19.5556C9.33161 19.4501 9.40045 19.3601 9.49488 19.3053L10.1755 18.9123L9.49488 18.5194C9.40045 18.4646 9.33161 18.3745 9.30348 18.269C9.27534 18.1635 9.29021 18.0512 9.34481 17.9566C9.39941 17.8621 9.48929 17.793 9.59473 17.7647C9.70016 17.7363 9.81255 17.7509 9.90723 17.8053L10.5877 18.1981V17.4123C10.5877 17.303 10.6311 17.1981 10.7084 17.1208C10.7858 17.0434 10.8906 17 11 17C11.1094 17 11.2143 17.0434 11.2916 17.1208C11.3689 17.1981 11.4124 17.303 11.4124 17.4123V18.1981L12.0928 17.8053C12.1875 17.7509 12.2998 17.7363 12.4053 17.7647C12.5107 17.793 12.6006 17.8621 12.6552 17.9566C12.7098 18.0512 12.7247 18.1635 12.6965 18.269C12.6684 18.3745 12.5996 18.4646 12.5051 18.5194L11.8245 18.9123L12.5051 19.3053ZM17.0051 19.3053C17.0521 19.3323 17.0934 19.3683 17.1265 19.4113C17.1595 19.4542 17.1838 19.5033 17.1979 19.5557C17.212 19.608 17.2156 19.6626 17.2086 19.7164C17.2015 19.7702 17.1839 19.822 17.1568 19.869C17.1297 19.9159 17.0936 19.9571 17.0505 19.9901C17.0075 20.023 16.9584 20.0472 16.906 20.0612C16.8536 20.0752 16.799 20.0787 16.7452 20.0715C16.6915 20.0643 16.6397 20.0466 16.5928 20.0194L15.9124 19.6265V20.4123C15.9124 20.5217 15.8689 20.6266 15.7916 20.7039C15.7143 20.7812 15.6094 20.8247 15.5 20.8247C15.3906 20.8247 15.2858 20.7812 15.2084 20.7039C15.1311 20.6266 15.0877 20.5217 15.0877 20.4123V19.6265L14.4072 20.0194C14.3126 20.0738 14.2002 20.0884 14.0947 20.06C13.9893 20.0316 13.8994 19.9626 13.8448 19.868C13.7902 19.7735 13.7753 19.6611 13.8035 19.5556C13.8316 19.4501 13.9004 19.3601 13.9949 19.3053L14.6755 18.9123L13.9949 18.5194C13.9004 18.4646 13.8316 18.3745 13.8035 18.269C13.7753 18.1635 13.7902 18.0512 13.8448 17.9566C13.8994 17.8621 13.9893 17.793 14.0947 17.7647C14.2002 17.7363 14.3126 17.7509 14.4072 17.8053L15.0877 18.1981V17.4123C15.0877 17.303 15.1311 17.1981 15.2084 17.1208C15.2858 17.0434 15.3906 17 15.5 17C15.6094 17 15.7143 17.0434 15.7916 17.1208C15.8689 17.1981 15.9124 17.303 15.9124 17.4123V18.1981L16.5928 17.8053C16.6875 17.7509 16.7998 17.7363 16.9053 17.7647C17.0107 17.793 17.1006 17.8621 17.1552 17.9566C17.2098 18.0512 17.2247 18.1635 17.1965 18.269C17.1684 18.3745 17.0996 18.4646 17.0051 18.5194L16.3245 18.9123L17.0051 19.3053ZM21.5051 19.3053C21.5521 19.3323 21.5934 19.3683 21.6265 19.4113C21.6595 19.4542 21.6838 19.5033 21.6979 19.5557C21.712 19.608 21.7156 19.6626 21.7086 19.7164C21.7015 19.7702 21.6839 19.822 21.6568 19.869C21.6297 19.9159 21.5936 19.9571 21.5505 19.9901C21.5075 20.023 21.4584 20.0472 21.406 20.0612C21.3536 20.0752 21.299 20.0787 21.2452 20.0715C21.1915 20.0643 21.1397 20.0466 21.0928 20.0194L20.4124 19.6265V20.4123C20.4124 20.5217 20.3689 20.6266 20.2916 20.7039C20.2143 20.7812 20.1094 20.8247 20 20.8247C19.8906 20.8247 19.7858 20.7812 19.7084 20.7039C19.6311 20.6266 19.5877 20.5217 19.5877 20.4123V19.6265L18.9072 20.0194C18.8126 20.0738 18.7002 20.0884 18.5947 20.06C18.4893 20.0316 18.3994 19.9626 18.3448 19.868C18.2902 19.7735 18.2753 19.6611 18.3035 19.5556C18.3316 19.4501 18.4004 19.3601 18.4949 19.3053L19.1755 18.9123L18.4949 18.5194C18.4004 18.4646 18.3316 18.3745 18.3035 18.269C18.2753 18.1635 18.2902 18.0512 18.3448 17.9566C18.3994 17.8621 18.4893 17.793 18.5947 17.7647C18.7002 17.7363 18.8126 17.7509 18.9072 17.8053L19.5877 18.1981V17.4123C19.5877 17.303 19.6311 17.1981 19.7084 17.1208C19.7858 17.0434 19.8906 17 20 17C20.1094 17 20.2143 17.0434 20.2916 17.1208C20.3689 17.1981 20.4124 17.303 20.4124 17.4123V18.1981L21.0928 17.8053C21.1875 17.7509 21.2998 17.7363 21.4053 17.7647C21.5107 17.793 21.6006 17.8621 21.6552 17.9566C21.7098 18.0512 21.7247 18.1635 21.6965 18.269C21.6684 18.3745 21.5996 18.4646 21.5051 18.5194L20.8245 18.9123L21.5051 19.3053Z" fill="#991D20"/>
<path d="M11.4126 9.91235C11.4126 8.82824 11.8433 7.78853 12.6098 7.02195C13.3764 6.25537 14.4161 5.82471 15.5002 5.82471C16.5844 5.82471 17.6241 6.25537 18.3906 7.02195C19.1572 7.78853 19.5879 8.82824 19.5879 9.91235V12.8373H20.4126V9.91235C20.4126 8.60952 19.895 7.36004 18.9738 6.4388C18.0526 5.51755 16.8031 5 15.5002 5C14.1974 5 12.9479 5.51755 12.0267 6.4388C11.1054 7.36004 10.5879 8.60952 10.5879 9.91235V12.8373H11.4126V9.91235Z" fill="#991D20"/>
</svg>
