<svg width="24" height="16" viewBox="0 0 24 16" fill="none" xmlns="http://www.w3.org/2000/svg">
<path d="M21.6199 0H2.38018C1.06768 0 0 1.08725 0 2.42391V13.5761C0 14.9127 1.06768 16 2.38018 16H21.6199C22.9324 16 24 14.9127 24 13.5761V2.42391C24 1.08725 22.9324 0 21.6199 0ZM22.4133 2.42391V13.5761C22.4133 13.7036 22.3781 13.82 22.3261 13.9272L16.717 8.21457L22.4117 2.4152C22.4117 2.41842 22.4133 2.42074 22.4133 2.42391ZM1.58678 13.576V2.42391C1.58678 2.42074 1.58839 2.41847 1.58839 2.41525L7.28312 8.21462L1.67359 13.9272C1.62204 13.8199 1.58678 13.7036 1.58678 13.576ZM12.2449 10.4839C12.114 10.6172 11.8861 10.6172 11.7552 10.4839L3.04766 1.61594H20.9528L12.2449 10.4839ZM8.40503 9.35719L10.6333 11.6264C10.9986 11.9984 11.484 12.2032 12 12.2032C12.516 12.2032 13.0015 11.9984 13.3668 11.6264L15.5952 9.35719L20.5309 14.3841H3.46882L8.40503 9.35719Z" fill="#991D20"/>
</svg>
