<svg width="25" height="24" viewBox="0 0 25 24" fill="none" xmlns="http://www.w3.org/2000/svg">
<path d="M20 12.2502C18.6898 14.9323 15.4081 17.5 12.4998 17.5C9.59151 17.5 6.30984 14.9323 5 12.2499" stroke="black" stroke-linecap="round" stroke-linejoin="round"/>
<path d="M20 12.2502C18.6898 14.9323 15.4081 17.5 12.4998 17.5C9.59151 17.5 6.30984 14.9323 5 12.2499" stroke="black" stroke-opacity="0.2" stroke-linecap="round" stroke-linejoin="round"/>
<path d="M20 12.2502C18.6898 14.9323 15.4081 17.5 12.4998 17.5C9.59151 17.5 6.30984 14.9323 5 12.2499" stroke="black" stroke-opacity="0.2" stroke-linecap="round" stroke-linejoin="round"/>
<path d="M20 12.2502C18.6898 14.9323 15.4081 17.5 12.4998 17.5C9.59151 17.5 6.30984 14.9323 5 12.2499" stroke="black" stroke-opacity="0.2" stroke-linecap="round" stroke-linejoin="round"/>
<path d="M20 12.2502C18.6898 14.9323 15.4081 17.5 12.4998 17.5C9.59151 17.5 6.30984 14.9323 5 12.2499" stroke="black" stroke-opacity="0.2" stroke-linecap="round" stroke-linejoin="round"/>
<path d="M20 12.2502C18.6898 14.9323 15.4081 17.5 12.4998 17.5C9.59151 17.5 6.30984 14.9323 5 12.2499" stroke="black" stroke-opacity="0.2" stroke-linecap="round" stroke-linejoin="round"/>
<path d="M20 12.2502C18.6898 9.56799 15.4086 7 12.5004 7C9.59202 7 6.30984 9.56735 5 12.2498" stroke="black" stroke-linecap="round" stroke-linejoin="round"/>
<path d="M20 12.2502C18.6898 9.56799 15.4086 7 12.5004 7C9.59202 7 6.30984 9.56735 5 12.2498" stroke="black" stroke-opacity="0.2" stroke-linecap="round" stroke-linejoin="round"/>
<path d="M20 12.2502C18.6898 9.56799 15.4086 7 12.5004 7C9.59202 7 6.30984 9.56735 5 12.2498" stroke="black" stroke-opacity="0.2" stroke-linecap="round" stroke-linejoin="round"/>
<path d="M20 12.2502C18.6898 9.56799 15.4086 7 12.5004 7C9.59202 7 6.30984 9.56735 5 12.2498" stroke="black" stroke-opacity="0.2" stroke-linecap="round" stroke-linejoin="round"/>
<path d="M20 12.2502C18.6898 9.56799 15.4086 7 12.5004 7C9.59202 7 6.30984 9.56735 5 12.2498" stroke="black" stroke-opacity="0.2" stroke-linecap="round" stroke-linejoin="round"/>
<path d="M20 12.2502C18.6898 9.56799 15.4086 7 12.5004 7C9.59202 7 6.30984 9.56735 5 12.2498" stroke="black" stroke-opacity="0.2" stroke-linecap="round" stroke-linejoin="round"/>
<path d="M14.75 12.25C14.75 13.4927 13.7427 14.5 12.5 14.5C11.2573 14.5 10.25 13.4927 10.25 12.25C10.25 11.0073 11.2573 10 12.5 10C13.7427 10 14.75 11.0073 14.75 12.25Z" stroke="black" stroke-linecap="round" stroke-linejoin="round"/>
<path d="M14.75 12.25C14.75 13.4927 13.7427 14.5 12.5 14.5C11.2573 14.5 10.25 13.4927 10.25 12.25C10.25 11.0073 11.2573 10 12.5 10C13.7427 10 14.75 11.0073 14.75 12.25Z" stroke="black" stroke-opacity="0.2" stroke-linecap="round" stroke-linejoin="round"/>
<path d="M14.75 12.25C14.75 13.4927 13.7427 14.5 12.5 14.5C11.2573 14.5 10.25 13.4927 10.25 12.25C10.25 11.0073 11.2573 10 12.5 10C13.7427 10 14.75 11.0073 14.75 12.25Z" stroke="black" stroke-opacity="0.2" stroke-linecap="round" stroke-linejoin="round"/>
<path d="M14.75 12.25C14.75 13.4927 13.7427 14.5 12.5 14.5C11.2573 14.5 10.25 13.4927 10.25 12.25C10.25 11.0073 11.2573 10 12.5 10C13.7427 10 14.75 11.0073 14.75 12.25Z" stroke="black" stroke-opacity="0.2" stroke-linecap="round" stroke-linejoin="round"/>
<path d="M14.75 12.25C14.75 13.4927 13.7427 14.5 12.5 14.5C11.2573 14.5 10.25 13.4927 10.25 12.25C10.25 11.0073 11.2573 10 12.5 10C13.7427 10 14.75 11.0073 14.75 12.25Z" stroke="black" stroke-opacity="0.2" stroke-linecap="round" stroke-linejoin="round"/>
<path d="M14.75 12.25C14.75 13.4927 13.7427 14.5 12.5 14.5C11.2573 14.5 10.25 13.4927 10.25 12.25C10.25 11.0073 11.2573 10 12.5 10C13.7427 10 14.75 11.0073 14.75 12.25Z" stroke="black" stroke-opacity="0.2" stroke-linecap="round" stroke-linejoin="round"/>
</svg>
