<svg width="180" height="105" viewBox="0 0 180 105" fill="none" xmlns="http://www.w3.org/2000/svg">
<g clip-path="url(#clip0_1_30)">
<mask id="mask0_1_30" style="mask-type:luminance" maskUnits="userSpaceOnUse" x="54" y="-2" width="74" height="63">
<path d="M127.834 -1.43835H54V60.411H127.834V-1.43835Z" fill="white"/>
</mask>
<g mask="url(#mask0_1_30)">
<path d="M65.2594 28.7753C65.2594 28.4952 65.2594 28.2852 65.2594 28.0051C65.2594 13.8621 76.8512 2.37967 91.129 2.37967C96.006 2.37967 100.812 3.77997 104.983 6.37052" stroke="#1C3564" stroke-width="5" stroke-miterlimit="2.61313" stroke-linecap="round" stroke-linejoin="bevel"/>
<path d="M111.344 46.4902C107.81 50.3412 103.216 53.0718 98.1972 54.4019C88.019 57.1325 77.134 53.7719 70.2072 45.86" stroke="#1C3564" stroke-width="5" stroke-miterlimit="2.61313" stroke-linecap="round" stroke-linejoin="bevel"/>
<path fill-rule="evenodd" clip-rule="evenodd" d="M81.0922 27.1659C97.137 20.5144 109.436 11.4825 117.776 0C121.169 1.4003 124.491 2.87062 127.884 4.27093C114.242 17.3637 98.5506 24.7854 81.1628 27.1659H81.0922Z" fill="#3A6FB6"/>
<path fill-rule="evenodd" clip-rule="evenodd" d="M64.2698 33.5362C85.5452 31.6458 105.265 26.1147 122.794 14.9823C123.996 18.5531 125.198 22.1239 126.399 25.6947C108.234 33.7464 87.807 36.9669 64.3406 33.5362H64.2698Z" fill="#3A6FB6"/>
<path fill-rule="evenodd" clip-rule="evenodd" d="M54.0203 35.7095C77.6281 39.7003 98.6913 38.72 117.21 32.9789C119.189 35.6394 121.239 38.3 123.218 40.9605C96.8535 46.0017 73.1043 45.5815 54.0909 35.7095H54.0203Z" fill="#3A6FB6"/>
</g>
<path d="M17.1562 75.9725C17.0199 74.7737 16.4574 73.8449 15.4687 73.1866C14.4801 72.5196 13.2358 72.1861 11.7358 72.1861C10.6619 72.1861 9.73296 72.3549 8.94886 72.6927C8.16478 73.022 7.5554 73.4778 7.12074 74.0603C6.6946 74.6344 6.48154 75.2886 6.48154 76.0232C6.48154 76.6395 6.62642 77.1713 6.9162 77.6188C7.21448 78.0661 7.60228 78.4419 8.07954 78.7459C8.56534 79.0412 9.08522 79.2903 9.6392 79.4929C10.1932 79.6871 10.7259 79.8476 11.2372 79.9742L13.794 80.6327C14.6293 80.8354 15.4858 81.1097 16.3636 81.4558C17.2415 81.802 18.0554 82.2578 18.8054 82.8234C19.5554 83.389 20.1606 84.0898 20.6208 84.9256C21.0894 85.7614 21.3238 86.7617 21.3238 87.9268C21.3238 89.3958 20.9404 90.7002 20.1732 91.8398C19.4148 92.9795 18.3111 93.8787 16.8622 94.5373C15.4219 95.1956 13.679 95.5249 11.6335 95.5249C9.6733 95.5249 7.97728 95.2168 6.54546 94.6005C5.11364 93.9841 3.9929 93.1105 3.18324 91.9792C2.37358 90.8395 1.92614 89.4887 1.84091 87.9268H5.80398C5.88068 88.8639 6.1875 89.6449 6.72444 90.2695C7.26988 90.8858 7.96448 91.3461 8.80824 91.65C9.66052 91.9453 10.5937 92.0931 11.608 92.0931C12.7244 92.0931 13.7173 91.92 14.5866 91.5739C15.4645 91.2193 16.1548 90.7297 16.6577 90.1049C17.1605 89.4717 17.4119 88.7331 17.4119 87.8888C17.4119 87.1205 17.1903 86.4917 16.7472 86.002C16.3125 85.5124 15.7202 85.1071 14.9702 84.7863C14.2287 84.4654 13.3892 84.1827 12.4517 83.9378L9.35796 83.102C7.26136 82.5364 5.59944 81.7049 4.37216 80.6073C3.1534 79.5098 2.54404 78.0578 2.54404 76.251C2.54404 74.7569 2.95312 73.4525 3.7713 72.3381C4.58948 71.2237 5.69744 70.3583 7.09518 69.742C8.4929 69.1174 10.0696 68.8049 11.8253 68.8049C13.598 68.8049 15.1619 69.1132 16.517 69.7293C17.8807 70.3457 18.9545 71.1942 19.7386 72.2747C20.5228 73.3469 20.9318 74.5795 20.966 75.9725H17.1562ZM34.2006 95.487C32.266 95.487 30.5998 95.0775 29.202 94.2585C27.8128 93.4312 26.739 92.2705 25.9804 90.7761C25.2304 89.2734 24.8554 87.5132 24.8554 85.4954C24.8554 83.503 25.2304 81.7471 25.9804 80.2274C26.739 78.7078 27.7958 77.5217 29.151 76.669C30.5146 75.8164 32.1084 75.39 33.9322 75.39C35.0402 75.39 36.114 75.5715 37.1538 75.9344C38.1936 76.2976 39.1268 76.8673 39.9534 77.6441C40.7802 78.4208 41.4322 79.4296 41.9094 80.6707C42.3868 81.9032 42.6254 83.4017 42.6254 85.1661V86.5085H27.016V83.6719H38.8796C38.8796 82.6756 38.675 81.7934 38.266 81.0251C37.8568 80.2485 37.2816 79.6364 36.5402 79.189C35.8072 78.7415 34.9464 78.5178 33.9578 78.5178C32.8838 78.5178 31.9464 78.7795 31.1452 79.3029C30.3526 79.818 29.739 80.4934 29.3044 81.3291C28.8782 82.1566 28.6652 83.0556 28.6652 84.0266V86.2427C28.6652 87.5427 28.8952 88.6485 29.3554 89.5605C29.8242 90.4722 30.4762 91.1687 31.3114 91.65C32.1466 92.1227 33.1226 92.359 34.239 92.359C34.9634 92.359 35.624 92.2578 36.2206 92.0551C36.8172 91.8441 37.3328 91.5317 37.7674 91.118C38.202 90.7044 38.5344 90.1936 38.7646 89.5858L42.3824 90.2317C42.0926 91.2868 41.5728 92.2112 40.8228 93.0049C40.0814 93.79 39.148 94.4022 38.023 94.8412C36.9066 95.2717 35.6324 95.487 34.2006 95.487ZM55.1378 95.487C53.2372 95.487 51.6008 95.0607 50.2286 94.208C48.865 93.3468 47.8168 92.1607 47.0838 90.6495C46.3508 89.1383 45.9844 87.4076 45.9844 85.4575C45.9844 83.482 46.3594 81.7386 47.1094 80.2274C47.8594 78.7078 48.9162 77.5217 50.2798 76.669C51.6434 75.8164 53.25 75.39 55.0994 75.39C56.591 75.39 57.9204 75.6644 59.088 76.2132C60.2556 76.7534 61.1974 77.5132 61.9134 78.4925C62.6378 79.4717 63.0682 80.6158 63.2046 81.9244H59.4844C59.2798 81.0125 58.811 80.2273 58.0782 79.569C57.3536 78.9105 56.382 78.5812 55.1634 78.5812C54.098 78.5812 53.1648 78.8598 52.3636 79.4169C51.571 79.9656 50.9532 80.7508 50.51 81.7724C50.0668 82.7854 49.8452 83.9842 49.8452 85.3688C49.8452 86.7871 50.0624 88.0112 50.4972 89.0412C50.9318 90.0712 51.5454 90.869 52.338 91.4346C53.1392 92.0002 54.081 92.2831 55.1634 92.2831C55.8878 92.2831 56.544 92.1522 57.132 91.8905C57.7286 91.6202 58.2272 91.2363 58.6278 90.7381C59.037 90.24 59.3224 89.6407 59.4844 88.94H63.2046C63.0682 90.1978 62.6548 91.3207 61.9644 92.3085C61.2742 93.2961 60.3494 94.0729 59.1904 94.6385C58.0398 95.2041 56.689 95.487 55.1378 95.487ZM79.7312 87.0278V75.6432H83.5664V95.0944H79.8078V91.7258H79.6034C79.1516 92.7644 78.4272 93.6297 77.43 94.3219C76.4414 95.0058 75.2098 95.3475 73.7354 95.3475C72.474 95.3475 71.3576 95.0732 70.386 94.5246C69.423 93.9673 68.6644 93.1441 68.1104 92.0551C67.565 90.9661 67.2922 89.6195 67.2922 88.0154V75.6432H71.1146V87.5595C71.1146 88.8851 71.4854 89.9402 72.227 90.7254C72.9684 91.5107 73.9314 91.9031 75.1162 91.9031C75.832 91.9031 76.5436 91.7258 77.251 91.3712C77.967 91.0168 78.5592 90.4807 79.028 89.7629C79.5054 89.0454 79.7396 88.1336 79.7312 87.0278ZM88.7024 95.0944V75.6432H92.397V78.7332H92.6016C92.9596 77.6864 93.5902 76.8632 94.4936 76.2637C95.4056 75.6559 96.4368 75.352 97.5874 75.352C97.826 75.352 98.1072 75.3605 98.431 75.3773C98.7634 75.3942 99.0234 75.4154 99.211 75.4405V79.0624C99.0576 79.0202 98.7848 78.9737 98.3928 78.9232C98.0008 78.8639 97.6086 78.8344 97.2166 78.8344C96.3132 78.8344 95.5078 79.0244 94.8004 79.4044C94.1016 79.7758 93.5476 80.2949 93.1384 80.962C92.7294 81.6205 92.5248 82.3717 92.5248 83.2161V95.0944H88.7024ZM110.279 95.487C108.344 95.487 106.678 95.0775 105.28 94.2585C103.891 93.4312 102.817 92.2705 102.059 90.7761C101.309 89.2734 100.934 87.5132 100.934 85.4954C100.934 83.503 101.309 81.7471 102.059 80.2274C102.817 78.7078 103.874 77.5217 105.229 76.669C106.593 75.8164 108.186 75.39 110.01 75.39C111.118 75.39 112.192 75.5715 113.232 75.9344C114.272 76.2976 115.205 76.8673 116.032 77.6441C116.858 78.4208 117.51 79.4296 117.988 80.6707C118.465 81.9032 118.703 83.4017 118.703 85.1661V86.5085H103.094V83.6719H114.958C114.958 82.6756 114.753 81.7934 114.344 81.0251C113.935 80.2485 113.36 79.6364 112.618 79.189C111.885 78.7415 111.024 78.5178 110.036 78.5178C108.962 78.5178 108.024 78.7795 107.223 79.3029C106.431 79.818 105.817 80.4934 105.382 81.3291C104.956 82.1566 104.743 83.0556 104.743 84.0266V86.2427C104.743 87.5427 104.973 88.6485 105.434 89.5605C105.902 90.4722 106.554 91.1687 107.39 91.65C108.225 92.1227 109.201 92.359 110.317 92.359C111.042 92.359 111.702 92.2578 112.299 92.0551C112.895 91.8441 113.411 91.5317 113.846 91.118C114.28 90.7044 114.613 90.1936 114.843 89.5858L118.461 90.2317C118.171 91.2868 117.651 92.2112 116.901 93.0049C116.159 93.79 115.226 94.4022 114.101 94.8412C112.985 95.2717 111.711 95.487 110.279 95.487Z" fill="#1C3564"/>
<path d="M123.251 95.0943V69.1595H132.584C134.612 69.1595 136.295 69.5057 137.634 70.1979C138.98 70.8903 139.986 71.8483 140.651 73.0725C141.315 74.2883 141.648 75.6939 141.648 77.2895C141.648 78.8766 141.311 80.2739 140.638 81.4812C139.973 82.68 138.967 83.6127 137.621 84.2797C136.283 84.9466 134.599 85.2802 132.571 85.2802H125.501V81.9117H132.213C133.491 81.9117 134.531 81.7302 135.332 81.3671C136.142 81.0041 136.734 80.4764 137.109 79.7842C137.484 79.092 137.672 78.2603 137.672 77.2895C137.672 76.3102 137.48 75.4617 137.097 74.7442C136.722 74.0266 136.129 73.4778 135.32 73.0978C134.518 72.7095 133.466 72.5154 132.162 72.5154H127.202V95.0943H123.251ZM136.176 83.3934L142.645 95.0943H138.145L131.804 83.3934H136.176ZM150.405 69.1595V95.0943H146.455V69.1595H150.405ZM158.369 95.0943H154.176L163.598 69.1595H168.162L177.584 95.0943H173.391L165.989 73.8703H165.784L158.369 95.0943ZM159.072 84.9383H172.675V88.2307H159.072V84.9383Z" fill="#3A6FB6"/>
</g>
<defs>
<clipPath id="clip0_1_30">
<rect width="180" height="105" fill="white"/>
</clipPath>
</defs>
</svg>
