<svg width="20" height="20" viewBox="0 0 20 20" fill="none" xmlns="http://www.w3.org/2000/svg">
<g clip-path="url(#clip0_5_248)">
<path d="M15.1628 7.21196H14.8371V4.83663C14.8372 2.16971 12.6673 0 10.0001 0C7.33296 0 5.16305 2.16971 5.16305 4.83663V7.21196H4.83709C3.8869 7.21196 3.11377 7.98509 3.11377 8.93528V18.2766C3.11377 19.2268 3.8869 19.9999 4.83709 19.9999H15.1628C16.113 19.9999 16.8862 19.2268 16.8862 18.2766V8.93528C16.8862 7.98509 16.1131 7.21196 15.1628 7.21196ZM6.64018 4.83663C6.64018 2.9842 8.14745 1.47713 10.0001 1.47713C11.8527 1.47713 13.36 2.9842 13.36 4.83663V7.21196H6.64018V4.83663ZM15.409 18.2767C15.409 18.4101 15.2963 18.5229 15.1628 18.5229H4.83709C4.70366 18.5229 4.5909 18.4101 4.5909 18.2767V8.93528C4.5909 8.80185 4.70366 8.68909 4.83709 8.68909H5.90161H14.0985H15.1628C15.2963 8.68909 15.409 8.80185 15.409 8.93528V18.2767Z" fill="#991D20"/>
<path d="M9.99986 11.4536C9.59197 11.4536 9.26129 11.7842 9.26129 12.1922V15.0199C9.26129 15.4279 9.59197 15.7585 9.99986 15.7585C10.4077 15.7585 10.7384 15.4279 10.7384 15.0199V12.1922C10.7384 11.7842 10.4077 11.4536 9.99986 11.4536Z" fill="#991D20"/>
</g>
<defs>
<clipPath id="clip0_5_248">
<rect width="20" height="20" fill="white"/>
</clipPath>
</defs>
</svg>
