<svg width="20" height="20" viewBox="0 0 20 20" fill="none" xmlns="http://www.w3.org/2000/svg">
<g clip-path="url(#clip0_5_226)">
<path d="M9.42965 0.968778C7.68746 1.25003 6.34371 2.40628 5.74996 4.12503C4.99215 6.31253 6.13277 9.45315 8.15621 10.8125C8.8359 11.2657 9.21871 11.3828 9.99996 11.3828C10.7812 11.3828 11.1562 11.2578 11.8515 10.8047C13.3828 9.78128 14.4531 7.67972 14.4687 5.68753C14.4765 4.53128 14.2031 3.69534 13.5312 2.74222C12.6406 1.49222 10.8984 0.734403 9.42965 0.968778Z" fill="#991D20"/>
<path d="M5.59374 11.1562C3.84374 11.8203 2.28905 12.6641 1.6953 13.2578C1.45311 13.5 1.36717 13.6641 1.16405 14.2812C1.03124 14.6953 0.882799 15.2266 0.835924 15.4766C0.765611 15.875 0.765611 15.9609 0.867174 16.2422C1.67186 18.3359 7.96092 19.6328 13.4609 18.8359C16.4765 18.3984 18.7187 17.3672 19.1484 16.2266C19.2812 15.8672 19.2422 15.5391 18.9062 14.4531C18.6328 13.5937 18.4844 13.3437 17.9297 12.9219C17.3672 12.4922 15.5078 11.5547 14.3281 11.1172L13.4922 10.8047L13.1797 11.1016C12.5625 11.6875 11.7969 12.125 11.0156 12.3281C10.3984 12.4922 9.2578 12.4453 8.65624 12.2344C8.05467 12.0234 7.39061 11.6172 6.91405 11.1797C6.6953 10.9766 6.5078 10.8125 6.49217 10.8125C6.47655 10.8203 6.07811 10.9688 5.59374 11.1562Z" fill="#991D20"/>
</g>
<defs>
<clipPath id="clip0_5_226">
<rect width="20" height="20" fill="white"/>
</clipPath>
</defs>
</svg>
