<svg width="60" height="79" viewBox="0 0 60 79" fill="none" xmlns="http://www.w3.org/2000/svg">
<path d="M51.2246 3.55306H35.1061C35.0912 3.55306 35.0766 3.55474 35.0618 3.55524C33.8524 1.92526 31.9143 0.866638 29.7333 0.866638C27.5522 0.866638 25.6141 1.92526 24.4048 3.55524C24.39 3.55474 24.3754 3.55306 24.3604 3.55306H8.24191C3.84441 3.55306 0.266602 7.13087 0.266602 11.5284V70.6296C0.266602 75.0271 3.84441 78.6049 8.24191 78.6049H51.2246C55.6221 78.6049 59.1999 75.0271 59.1999 70.6296V11.5284C59.1999 7.13087 55.6221 3.55306 51.2246 3.55306ZM29.7333 3.38516C32.0016 3.38516 33.8468 5.23056 33.8468 7.49874V8.84195C33.8468 9.53739 34.4105 10.1012 35.1061 10.1012H40.4789C41.2659 10.1012 41.9061 10.7414 41.9061 11.5284C41.9061 12.3153 41.2659 12.9555 40.4789 12.9555H18.9876C18.2006 12.9555 17.5604 12.3153 17.5604 11.5284C17.5604 10.7414 18.2006 10.1012 18.9876 10.1012H24.3604C25.056 10.1012 25.6197 9.53739 25.6197 8.84195V7.49874C25.6197 5.23056 27.4649 3.38516 29.7333 3.38516ZM18.9876 15.474H40.4789C42.6546 15.474 44.4246 13.704 44.4246 11.5284C44.4246 11.5002 44.4231 11.4725 44.4224 11.4444H51.2246C51.2708 11.4444 51.3086 11.482 51.3086 11.5284V70.6296C51.3086 70.6759 51.2708 70.7136 51.2246 70.7136H8.24191C8.19574 70.7136 8.15796 70.6759 8.15796 70.6296V11.5284C8.15796 11.482 8.19574 11.4444 8.24191 11.4444H15.0441C15.0434 11.4725 15.0419 11.5002 15.0419 11.5284C15.0419 13.704 16.8119 15.474 18.9876 15.474ZM56.6814 70.6296C56.6814 73.6384 54.2336 76.0864 51.2246 76.0864H8.24191C5.23295 76.0864 2.78512 73.6384 2.78512 70.6296V11.5284C2.78512 8.51958 5.23295 6.07158 8.24191 6.07158H23.2575C23.1561 6.53163 23.1012 7.0088 23.1012 7.49874V7.58269H18.9876C17.8084 7.58269 16.7491 8.10335 16.0256 8.9259H8.24191C6.80686 8.9259 5.63944 10.0933 5.63944 11.5284V70.6296C5.63944 72.0647 6.80686 73.2321 8.24191 73.2321H51.2246C52.6597 73.2321 53.8271 72.0647 53.8271 70.6296V11.5284C53.8271 10.0933 52.6597 8.9259 51.2246 8.9259H43.4409C42.7172 8.10335 41.6579 7.58269 40.4789 7.58269H36.3654V7.49874C36.3654 7.0088 36.3103 6.53163 36.209 6.07158H51.2246C54.2336 6.07158 56.6814 8.51958 56.6814 11.5284V70.6296Z" fill="#991D20"/>
<path d="M29.7348 11.4443C30.4305 11.4443 30.9941 10.8804 30.9941 10.185V7.49858C30.9941 6.80313 30.4305 6.23932 29.7348 6.23932C29.0392 6.23932 28.4756 6.80313 28.4756 7.49858V10.185C28.4756 10.8804 29.0392 11.4443 29.7348 11.4443Z" fill="#991D20"/>
<path d="M28.3891 30.2493H44.5077C45.2033 30.2493 45.7669 29.6855 45.7669 28.99C45.7669 28.2946 45.2033 27.7308 44.5077 27.7308H28.3891C27.6935 27.7308 27.1299 28.2946 27.1299 28.99C27.1299 29.6855 27.6935 30.2493 28.3891 30.2493Z" fill="#991D20"/>
<path d="M14.069 28.0999C13.5772 28.5917 13.5772 29.3891 14.069 29.8807L16.7555 32.5671C17.0014 32.8129 17.3238 32.936 17.646 32.936C17.9682 32.936 18.2906 32.8131 18.5365 32.5671L23.9094 27.1943C24.4012 26.7025 24.4012 25.9051 23.9094 25.4135C23.4174 24.9217 22.6202 24.9217 22.1285 25.4135L17.646 29.896L15.8501 28.0999C15.3582 27.6082 14.561 27.6082 14.069 28.0999Z" fill="#991D20"/>
<path d="M28.3891 43.6816H44.5077C45.2033 43.6816 45.7669 43.1178 45.7669 42.4223C45.7669 41.7269 45.2033 41.1631 44.5077 41.1631H28.3891C27.6935 41.1631 27.1299 41.7269 27.1299 42.4223C27.1299 43.1178 27.6935 43.6816 28.3891 43.6816Z" fill="#991D20"/>
<path d="M22.1281 38.8453L17.6458 43.3278L15.85 41.5318C15.358 41.04 14.5608 41.04 14.069 41.5318C13.5772 42.0235 13.5772 42.8209 14.069 43.3125L16.7555 45.9989C17.0014 46.2447 17.3238 46.3678 17.646 46.3678C17.9682 46.3678 18.2906 46.2449 18.5365 45.9989L23.9094 40.6261C24.4012 40.1343 24.4012 39.337 23.9094 38.8453C23.4173 38.3536 22.6201 38.3536 22.1281 38.8453Z" fill="#991D20"/>
<path d="M28.3891 57.1134H44.5077C45.2033 57.1134 45.7669 56.5496 45.7669 55.8542C45.7669 55.1587 45.2033 54.5949 44.5077 54.5949H28.3891C27.6935 54.5949 27.1299 55.1587 27.1299 55.8542C27.1299 56.5496 27.6935 57.1134 28.3891 57.1134Z" fill="#991D20"/>
<path d="M22.1281 52.2777L17.6458 56.7601L15.85 54.9641C15.358 54.4723 14.5608 54.4723 14.069 54.9641C13.5772 55.4559 13.5772 56.2532 14.069 56.7448L16.7555 59.4313C17.0014 59.6771 17.3238 59.8001 17.646 59.8001C17.9682 59.8001 18.2906 59.6772 18.5365 59.4313L23.9094 54.0584C24.4012 53.5666 24.4012 52.7693 23.9094 52.2777C23.4173 51.7859 22.6201 51.7859 22.1281 52.2777Z" fill="#991D20"/>
</svg>
