<svg width="93" height="70" viewBox="0 0 93 70" fill="none" xmlns="http://www.w3.org/2000/svg">
<path d="M7.27436 64.7788C5.73448 64.7788 4.18867 64.2732 2.94708 63.2619C0.243372 61.0607 -0.0146692 57.253 2.37454 54.7544L32.6873 23.1042C33.9453 21.7953 35.7404 21.0418 37.6596 21.0716C39.5574 21.0913 41.3527 21.8748 42.5758 23.2134L51.3325 32.762L67.4052 14.7555L52.367 2.8468L89.8429 0.0507202L92.9068 34.963L77.3285 22.6183L56.4446 45.999C55.211 47.3772 53.3776 48.1902 51.4398 48.2002C49.4616 48.2199 47.6553 47.4269 46.4029 46.0584L37.4741 36.3214L12.1741 62.7364C10.884 64.0947 9.07778 64.7788 7.27436 64.7788ZM77.5787 33.2179L72.6734 38.9688V69.1121H92.6917L92.6168 44.1548C88.4962 40.9124 77.5787 33.2179 77.5787 33.2179ZM58.6834 53.852C55.1867 56.6085 52.9612 56.6779 52.9612 56.6779C50.0799 57.1242 45.5805 54.2687 43.2853 52.7517L43.2394 69.0129H66.9806L67.4297 44.5911C64.2066 48.0813 61.6078 51.4624 58.6834 53.852ZM37.6437 68.9235V46.693L17.6249 67.7932V68.9235H37.6437Z" fill="black"/>
</svg>
