<svg width="32" height="32" viewBox="0 0 30 30" fill="none" xmlns="http://www.w3.org/2000/svg">
<path d="M21.6994 4.77493H17.0499C17.0455 4.77493 17.0413 4.77541 17.0371 4.77556C16.6882 4.30537 16.1291 4 15.5 4C14.8709 4 14.3118 4.30537 13.9629 4.77556C13.9587 4.77541 13.9545 4.77493 13.9501 4.77493H9.30057C8.03206 4.77493 7 5.80699 7 7.0755V24.1239C7 25.3924 8.03206 26.4245 9.30057 26.4245H21.6994C22.9679 26.4245 24 25.3924 24 24.1239V7.0755C24 5.80699 22.9679 4.77493 21.6994 4.77493ZM15.5 4.7265C16.1543 4.7265 16.6866 5.25882 16.6866 5.91311V6.30057C16.6866 6.50118 16.8492 6.66382 17.0499 6.66382H18.5997C18.8267 6.66382 19.0114 6.84849 19.0114 7.0755C19.0114 7.3025 18.8267 7.48718 18.5997 7.48718H12.4003C12.1733 7.48718 11.9886 7.3025 11.9886 7.0755C11.9886 6.84849 12.1733 6.66382 12.4003 6.66382H13.9501C14.1508 6.66382 14.3134 6.50118 14.3134 6.30057V5.91311C14.3134 5.25882 14.8457 4.7265 15.5 4.7265ZM12.4003 8.21368H18.5997C19.2273 8.21368 19.7379 7.70309 19.7379 7.0755C19.7379 7.06736 19.7375 7.05937 19.7373 7.05128H21.6994C21.7127 7.05128 21.7236 7.06213 21.7236 7.0755V24.1239C21.7236 24.1373 21.7127 24.1481 21.6994 24.1481H9.30057C9.28725 24.1481 9.27635 24.1373 9.27635 24.1239V7.0755C9.27635 7.06213 9.28725 7.05128 9.30057 7.05128H11.2627C11.2625 7.05937 11.2621 7.06736 11.2621 7.0755C11.2621 7.70309 11.7727 8.21368 12.4003 8.21368ZM23.2735 24.1239C23.2735 24.9919 22.5674 25.698 21.6994 25.698H9.30057C8.4326 25.698 7.7265 24.9919 7.7265 24.1239V7.0755C7.7265 6.20758 8.4326 5.50142 9.30057 5.50142H13.632C13.6027 5.63413 13.5869 5.77178 13.5869 5.91311V5.93732H12.4003C12.0601 5.93732 11.7546 6.08751 11.5459 6.32479H9.30057C8.88661 6.32479 8.54986 6.66154 8.54986 7.0755V24.1239C8.54986 24.5379 8.88661 24.8746 9.30057 24.8746H21.6994C22.1134 24.8746 22.4501 24.5379 22.4501 24.1239V7.0755C22.4501 6.66154 22.1134 6.32479 21.6994 6.32479H19.4541C19.2454 6.08751 18.9398 5.93732 18.5997 5.93732H17.4131V5.91311C17.4131 5.77178 17.3972 5.63413 17.368 5.50142H21.6994C22.5674 5.50142 23.2735 6.20758 23.2735 7.0755V24.1239Z" fill="black"/>
<path d="M15.5 7.05123C15.7006 7.05123 15.8632 6.88859 15.8632 6.68798V5.91305C15.8632 5.71244 15.7006 5.5498 15.5 5.5498C15.2993 5.5498 15.1367 5.71244 15.1367 5.91305V6.68798C15.1367 6.88859 15.2993 7.05123 15.5 7.05123Z" fill="black"/>
<path d="M15.1123 12.4758H19.7618C19.9625 12.4758 20.1251 12.3131 20.1251 12.1125C20.1251 11.9119 19.9625 11.7493 19.7618 11.7493H15.1123C14.9116 11.7493 14.749 11.9119 14.749 12.1125C14.749 12.3131 14.9116 12.4758 15.1123 12.4758Z" fill="black"/>
<path d="M10.9814 11.8558C10.8395 11.9976 10.8395 12.2276 10.9814 12.3694L11.7563 13.1444C11.8273 13.2153 11.9203 13.2508 12.0132 13.2508C12.1062 13.2508 12.1991 13.2153 12.2701 13.1444L13.82 11.5945C13.9618 11.4526 13.9618 11.2226 13.82 11.0808C13.6781 10.939 13.4481 10.939 13.3062 11.0808L12.0132 12.3738L11.4952 11.8558C11.3533 11.7139 11.1233 11.7139 10.9814 11.8558Z" fill="black"/>
<path d="M15.1123 16.3505H19.7618C19.9625 16.3505 20.1251 16.1878 20.1251 15.9872C20.1251 15.7866 19.9625 15.624 19.7618 15.624H15.1123C14.9116 15.624 14.749 15.7866 14.749 15.9872C14.749 16.1878 14.9116 16.3505 15.1123 16.3505Z" fill="black"/>
<path d="M13.3061 14.9554L12.0132 16.2484L11.4951 15.7303C11.3532 15.5885 11.1233 15.5885 10.9814 15.7303C10.8395 15.8722 10.8395 16.1022 10.9814 16.244L11.7563 17.0189C11.8273 17.0898 11.9203 17.1253 12.0132 17.1253C12.1062 17.1253 12.1991 17.0899 12.2701 17.0189L13.82 15.4691C13.9618 15.3272 13.9618 15.0972 13.82 14.9554C13.678 14.8135 13.448 14.8135 13.3061 14.9554Z" fill="black"/>
<path d="M15.1123 20.225H19.7618C19.9625 20.225 20.1251 20.0624 20.1251 19.8618C20.1251 19.6612 19.9625 19.4985 19.7618 19.4985H15.1123C14.9116 19.4985 14.749 19.6612 14.749 19.8618C14.749 20.0624 14.9116 20.225 15.1123 20.225Z" fill="black"/>
<path d="M13.3061 18.8301L12.0132 20.1231L11.4951 19.605C11.3532 19.4632 11.1233 19.4632 10.9814 19.605C10.8395 19.7469 10.8395 19.9769 10.9814 20.1187L11.7563 20.8936C11.8273 20.9645 11.9203 21 12.0132 21C12.1062 21 12.1991 20.9646 12.2701 20.8936L13.82 19.3438C13.9618 19.2019 13.9618 18.9719 13.82 18.8301C13.678 18.6882 13.448 18.6882 13.3061 18.8301Z" fill="black"/>
</svg>
