<svg width="22" height="22" viewBox="0 0 20 20" fill="none" xmlns="http://www.w3.org/2000/svg">
<path d="M1.11111 13.3333C1.68092 13.3333 2.15056 13.7623 2.21475 14.3149L2.22222 14.4444V17.7778H6.66667C7.28031 17.7778 7.77778 18.2752 7.77778 18.8889C7.77778 19.4587 7.34884 19.9283 6.79624 19.9925L6.66667 20H2.22222C1.05071 20 0.0909276 19.0935 0.0060953 17.9436L0 17.7778V14.4444C0 13.8308 0.497467 13.3333 1.11111 13.3333ZM18.8889 13.3333C19.5026 13.3333 20 13.8308 20 14.4444V17.7778C20 19.0051 19.0051 20 17.7778 20H13.3333C12.7197 20 12.2222 19.5026 12.2222 18.8889C12.2222 18.2752 12.7197 17.7778 13.3333 17.7778H17.7778V14.4444C17.7778 13.8308 18.2752 13.3333 18.8889 13.3333ZM18.8889 8.88889C19.5026 8.88889 20 9.38633 20 10C20 10.5698 19.5711 11.0395 19.0185 11.1036L18.8889 11.1111H1.11111C0.497467 11.1111 0 10.6137 0 10C0 9.43017 0.428938 8.96055 0.981533 8.89636L1.11111 8.88889H18.8889ZM6.66667 0C7.28031 0 7.77778 0.497467 7.77778 1.11111C7.77778 1.72476 7.28031 2.22222 6.66667 2.22222H2.22222V5.55556C2.22222 6.1692 1.72476 6.66667 1.11111 6.66667C0.497467 6.66667 0 6.1692 0 5.55556V2.22222C0 0.994922 0.994922 0 2.22222 0H6.66667ZM17.7778 0C19.0051 0 20 0.994922 20 2.22222V5.55556C20 6.1692 19.5026 6.66667 18.8889 6.66667C18.2752 6.66667 17.7778 6.1692 17.7778 5.55556V2.22222H13.3333C12.7197 2.22222 12.2222 1.72476 12.2222 1.11111C12.2222 0.497467 12.7197 0 13.3333 0H17.7778Z" fill="black"/>
</svg>
